<?xml version="1.0" standalone="no"?>
<!DOCTYPE svg PUBLIC "-//W3C//DTD SVG 20010904//EN"
 "http://www.w3.org/TR/2001/REC-SVG-20010904/DTD/svg10.dtd">
<svg version="1.0" xmlns="http://www.w3.org/2000/svg"
 width="397.000000pt" height="397.000000pt" viewBox="0 0 397.000000 397.000000"
 preserveAspectRatio="xMidYMid meet">
<metadata>
Created by potrace 1.11, written by Peter Selinger 2001-2013
</metadata>
<g transform="translate(0.000000,397.000000) scale(0.100000,-0.100000)"
fill="#000000" stroke="none">
<path d="M1890 3962 c-14 -2 -31 -9 -39 -15 -12 -9 -13 -9 -7 1 4 8 1 12 -10
12 -15 0 -15 -2 1 -26 9 -14 14 -28 11 -32 -3 -3 -6 0 -6 7 0 9 -5 9 -21 1
-11 -7 -23 -9 -27 -6 -3 3 0 6 7 6 7 0 9 5 5 12 -5 8 -10 7 -18 -3 -6 -8 -18
-14 -26 -14 -8 1 -24 -3 -35 -8 -18 -9 -19 -9 -6 7 8 9 19 15 25 13 6 -3 19 0
28 5 21 10 13 39 -9 31 -12 -5 -12 -7 -1 -14 9 -6 9 -9 1 -9 -6 0 -15 5 -18
10 -8 13 -52 13 -60 1 -3 -5 0 -13 7 -17 6 -4 14 -2 16 4 2 7 9 12 15 12 6 0
0 -11 -13 -25 -14 -15 -30 -23 -39 -20 -8 3 -18 0 -22 -6 -4 -7 -6 -1 -6 14 2
24 3 24 20 10 22 -21 35 -9 13 12 -10 11 -23 14 -34 9 -9 -4 -27 -6 -39 -5
-13 1 -23 -2 -23 -7 0 -5 13 -8 30 -7 22 1 27 -1 20 -10 -5 -7 -8 -15 -5 -18
3 -4 2 -5 -2 -2 -3 3 -12 0 -19 -6 -10 -8 -16 -5 -25 15 -7 14 -16 26 -21 26
-11 0 -10 -7 2 -31 6 -11 7 -19 2 -19 -6 0 -12 9 -15 20 -4 16 -11 19 -41 15
-20 -3 -44 -9 -54 -14 -9 -6 -34 -13 -55 -16 -21 -3 -47 -15 -58 -26 -17 -17
-18 -23 -7 -37 12 -16 11 -16 -6 -2 -18 14 -19 13 -12 -5 4 -11 4 -16 0 -13
-4 4 -16 2 -27 -4 -17 -9 -24 -7 -38 11 -11 13 -20 17 -24 11 -3 -6 -11 -8
-16 -5 -5 3 -18 -3 -30 -14 -12 -11 -26 -18 -30 -15 -5 3 -19 -2 -31 -10 -12
-9 -20 -16 -18 -17 3 0 13 -2 23 -4 12 -2 17 1 13 10 -3 9 0 12 11 8 8 -3 19
0 25 8 8 11 8 10 4 -5 -5 -13 -2 -17 9 -12 22 8 18 -2 -6 -15 -17 -8 -20 -8
-14 1 5 8 3 11 -6 8 -8 -3 -13 -11 -11 -18 3 -11 0 -11 -12 0 -9 7 -16 9 -16
6 0 -4 -9 -2 -20 4 -17 9 -20 8 -20 -7 0 -15 -2 -16 -10 -3 -7 11 -10 11 -10
2 0 -7 -5 -10 -10 -7 -5 3 -10 0 -10 -8 0 -17 42 -16 48 1 4 14 22 6 22 -10 0
-6 -3 -8 -7 -5 -3 4 -18 -3 -32 -15 -14 -13 -20 -15 -12 -6 11 15 10 17 -8 15
-13 -1 -20 -6 -17 -14 3 -7 1 -15 -4 -18 -5 -3 -7 8 -5 25 4 27 2 29 -16 17
-10 -6 -19 -16 -19 -20 0 -5 -6 -7 -14 -4 -8 3 -17 -1 -20 -9 -3 -9 -10 -12
-16 -9 -6 3 -10 -4 -10 -17 0 -17 -3 -20 -9 -9 -7 11 -22 5 -75 -33 -36 -26
-66 -52 -66 -57 0 -6 -4 -8 -9 -5 -11 7 -47 -33 -56 -64 -7 -22 -6 -24 9 -11
9 8 15 19 13 25 -2 6 5 19 15 29 10 9 18 13 18 8 0 -6 -4 -13 -10 -16 -5 -3
-10 -15 -10 -26 0 -10 -5 -19 -11 -19 -5 0 -7 -5 -4 -10 4 -6 1 -9 -7 -8 -7 2
-12 -3 -10 -10 2 -10 -2 -10 -20 -1 -32 16 -37 23 -13 15 16 -5 20 -1 21 19
l2 25 -29 -28 c-16 -15 -29 -34 -29 -42 0 -13 -1 -13 -11 0 -8 12 -10 10 -6
-10 2 -14 6 -32 8 -40 4 -13 -1 -16 -37 -19 -10 -1 -14 -7 -10 -17 3 -8 2 -12
-3 -9 -17 10 -8 42 10 38 21 -6 33 12 22 32 -7 12 -18 5 -56 -35 -45 -48 -47
-51 -32 -74 14 -21 14 -24 -2 -37 -9 -8 -14 -9 -10 -2 10 17 -31 27 -48 13 -8
-7 -13 -16 -10 -20 3 -4 -1 -10 -9 -13 -7 -3 -13 -17 -13 -30 0 -19 4 -24 16
-20 14 4 14 3 1 -6 -8 -6 -10 -11 -5 -11 6 0 3 -6 -6 -13 -8 -7 -18 -20 -22
-30 -4 -10 -11 -16 -16 -13 -4 3 -20 -8 -35 -24 -14 -17 -22 -30 -16 -30 5 0
10 -5 10 -10 0 -6 -7 -6 -19 2 -18 11 -18 12 3 29 17 15 18 18 5 19 -16 0 -34
-26 -31 -42 1 -5 -2 -8 -7 -8 -5 0 -14 -13 -21 -30 -7 -16 -16 -30 -20 -30
-13 0 2 -41 17 -47 10 -4 11 -9 2 -19 -6 -8 -16 -11 -22 -7 -6 4 -8 0 -5 -9 4
-8 3 -21 -2 -28 -5 -7 -7 2 -7 23 1 28 4 34 14 25 17 -14 16 2 -2 26 -13 17
-15 18 -15 3 0 -9 -5 -17 -12 -17 -6 0 -9 -3 -5 -6 3 -3 -5 -24 -18 -45 -15
-23 -22 -45 -18 -55 4 -12 3 -15 -5 -10 -7 4 -12 1 -12 -9 0 -13 4 -14 20 -5
23 12 25 21 8 39 -10 11 -10 13 -1 7 7 -4 13 -4 14 1 5 56 17 63 15 8 0 -25
-4 -45 -9 -45 -4 0 -6 -4 -3 -8 3 -5 0 -9 -7 -10 -32 -3 -51 -10 -55 -20 -3
-11 28 -9 49 3 6 4 0 -13 -12 -36 -13 -24 -22 -47 -21 -51 1 -4 -6 -4 -15 -1
-11 4 -14 3 -9 -5 4 -7 2 -12 -3 -12 -6 0 -11 -5 -11 -11 0 -5 5 -7 10 -4 6 3
10 1 10 -5 0 -14 -22 -8 -28 8 -2 6 8 23 22 37 30 29 33 40 10 31 -9 -3 -12
-2 -9 5 4 6 13 8 21 5 15 -6 20 9 6 18 -16 9 -32 -11 -50 -62 -11 -29 -22 -55
-25 -59 -4 -3 -7 -11 -7 -17 0 -6 7 -3 14 7 9 12 16 14 21 7 3 -5 12 -7 18 -3
7 4 7 0 -1 -10 -8 -9 -11 -21 -8 -26 4 -5 2 -12 -3 -15 -5 -4 -8 5 -6 19 1 16
-2 24 -9 22 -11 -4 -11 -22 -2 -80 2 -15 0 -25 -4 -22 -5 3 -12 0 -16 -6 -3
-6 0 -15 7 -20 11 -7 11 -9 1 -9 -7 0 -10 -5 -6 -12 4 -6 3 -8 -4 -5 -5 4 -19
4 -31 -1 -15 -5 -18 -11 -10 -22 8 -11 12 -12 16 -2 2 6 8 12 12 12 10 0 11
-39 0 -45 -5 -3 -6 0 -3 8 3 9 -2 13 -18 12 -24 -2 -23 2 -44 -120 -3 -22 -8
-58 -10 -80 -1 -22 -3 -40 -4 -40 -2 0 -4 -10 -5 -22 -1 -13 2 -23 6 -23 5 0
9 -5 9 -11 0 -5 -4 -7 -10 -4 -11 7 -12 -1 -12 -140 0 -132 9 -272 21 -312 5
-17 7 -34 4 -37 -3 -3 -1 -12 5 -19 7 -8 9 -17 5 -20 -3 -4 -1 -13 5 -20 7 -8
9 -17 5 -20 -3 -4 -1 -7 5 -7 18 0 24 20 7 26 -12 5 -13 9 -4 20 14 17 29 18
29 3 0 -5 -5 -7 -11 -3 -7 4 -10 1 -7 -7 3 -8 12 -13 19 -11 8 2 6 -5 -6 -19
-18 -20 -18 -22 -2 -16 9 4 18 2 18 -3 3 -20 4 -25 12 -37 4 -6 3 -14 -3 -18
-6 -4 -8 -11 -4 -16 3 -5 9 -7 13 -5 4 3 8 -1 8 -8 0 -8 -7 -12 -15 -8 -10 3
-13 1 -8 -6 3 -6 2 -13 -4 -17 -13 -8 -13 -45 0 -45 5 0 7 6 4 13 -3 8 1 19 9
25 11 9 16 7 25 -13 6 -14 9 -32 6 -40 -4 -8 -1 -15 6 -15 10 0 10 -3 0 -14
-6 -8 -19 -12 -28 -10 -14 5 -14 4 1 -6 14 -9 22 -9 34 2 12 9 15 9 9 1 -4 -8
-2 -13 6 -13 10 0 9 -3 -1 -9 -9 -6 -22 -6 -33 0 -12 6 -18 6 -18 -1 0 -5 5
-10 11 -10 5 0 8 -4 5 -8 -7 -12 31 -92 45 -92 8 0 7 6 -3 18 -9 9 -13 23 -10
31 2 8 0 11 -5 8 -5 -3 -9 3 -10 13 -2 27 21 31 36 7 11 -18 11 -20 0 -9 -18
17 -34 15 -19 -3 6 -8 9 -19 5 -25 -8 -13 7 -13 23 0 6 6 10 7 7 4 -3 -4 1
-14 8 -23 11 -14 10 -14 -6 -2 -16 13 -19 13 -17 0 4 -26 0 -40 -10 -34 -5 3
-10 1 -10 -4 0 -6 5 -11 10 -11 6 0 9 -4 8 -8 -2 -4 8 -29 22 -55 23 -43 35
-52 66 -48 6 1 17 -6 24 -14 11 -13 9 -20 -11 -42 -13 -14 -18 -23 -11 -19 7
4 12 1 12 -8 0 -19 33 -76 44 -76 5 0 19 8 30 18 20 16 20 16 7 0 -13 -18 -8
-22 19 -20 3 0 6 -8 7 -18 2 -18 1 -18 -18 1 -11 11 -25 17 -32 12 -9 -5 -7
-8 5 -11 9 -2 19 -10 22 -19 6 -14 4 -14 -11 -2 -15 12 -15 11 1 -13 18 -28
53 -40 43 -15 -3 8 -1 20 4 28 8 11 9 9 7 -6 -2 -12 2 -19 10 -17 6 1 11 -4
10 -10 -2 -7 3 -12 10 -10 9 2 10 -3 3 -16 -6 -11 -6 -24 0 -33 13 -21 11 -31
-5 -17 -7 7 -12 24 -9 37 4 22 2 23 -14 10 -16 -13 -17 -12 -4 4 14 18 5 23
-18 8 -10 -7 -9 -11 7 -22 10 -8 20 -17 20 -22 3 -18 47 -67 61 -67 8 0 12 -3
8 -6 -3 -4 1 -13 9 -21 19 -19 31 -9 14 12 -7 8 -8 15 -4 15 5 0 15 -9 22 -21
7 -12 16 -18 19 -15 3 3 2 11 -3 19 -5 7 -1 5 8 -6 9 -10 27 -27 40 -38 l23
-20 -26 15 c-23 14 -27 14 -45 0 -18 -15 -18 -15 7 -10 17 4 31 0 39 -9 8 -9
8 -15 2 -15 -6 0 -12 6 -15 13 -3 9 -7 9 -17 0 -16 -15 14 -32 50 -28 38 4 58
-11 54 -40 -1 -17 2 -25 9 -22 7 2 11 13 9 23 -2 15 -1 16 7 4 7 -9 6 -19 0
-27 -6 -7 -7 -18 -3 -25 4 -7 -2 -5 -13 5 -13 11 -20 28 -18 43 1 17 -2 24
-10 20 -7 -2 -18 1 -24 7 -8 8 -14 8 -23 -1 -9 -9 -8 -12 6 -12 9 0 15 -4 11
-9 -3 -5 0 -13 6 -17 8 -4 9 -3 5 4 -4 7 -2 12 3 12 6 0 11 -8 12 -17 0 -10
28 -40 62 -68 34 -27 58 -45 54 -38 -4 6 -2 13 4 15 6 2 0 12 -12 23 -22 20
-22 20 -16 0 7 -18 6 -19 -6 -3 -8 10 -17 15 -20 11 -4 -3 -7 -1 -7 6 0 8 6
11 16 7 12 -4 15 -2 10 9 -9 24 8 17 19 -8 6 -12 18 -21 27 -21 14 1 15 -2 7
-17 -9 -18 3 -59 17 -59 3 0 2 4 -1 10 -3 6 1 7 9 4 9 -3 16 -1 16 5 0 10 -13
15 -35 12 -5 -1 -2 5 7 12 10 8 16 17 13 20 -3 4 -2 4 3 1 4 -3 7 -9 8 -12 2
-20 17 -41 25 -36 5 3 6 10 3 16 -4 7 -2 8 5 4 9 -6 9 -11 1 -21 -7 -8 -9 -20
-5 -27 4 -7 0 -5 -8 4 -8 10 -17 15 -20 12 -7 -8 18 -34 32 -34 6 0 11 -4 11
-9 0 -5 20 -8 45 -6 25 1 53 -4 62 -10 14 -11 12 -12 -19 -11 -20 0 -34 4 -32
8 3 4 -5 6 -16 5 -21 -1 -15 -13 10 -19 8 -2 19 -8 25 -15 13 -15 100 -63 114
-63 6 0 11 5 11 11 0 6 -7 9 -14 6 -11 -4 -13 -1 -9 11 6 15 4 15 -9 4 -14
-11 -17 -10 -23 7 -7 22 -21 28 -27 12 -1 -5 -11 -4 -21 4 -17 12 -16 13 5 12
13 0 32 3 43 7 16 6 17 6 5 -3 -11 -8 -12 -11 -2 -11 7 0 10 -4 7 -10 -9 -14
8 -12 24 3 8 7 11 7 8 1 -4 -7 0 -17 8 -24 9 -7 13 -21 10 -31 -4 -12 -1 -19
7 -19 7 0 49 -18 93 -39 50 -24 90 -38 107 -35 20 2 31 -3 38 -16 6 -11 15
-20 21 -20 6 0 8 4 5 8 -2 4 0 14 6 22 8 12 9 12 4 -2 -3 -10 -1 -18 5 -18 6
0 7 -5 3 -12 -5 -7 -2 -9 9 -5 9 3 17 2 19 -3 2 -5 13 -11 25 -13 12 -2 25 -6
29 -9 3 -4 17 -4 30 -2 13 2 24 1 24 -4 0 -5 6 -9 13 -10 12 -1 46 -7 77 -14
8 -2 20 -6 25 -10 6 -3 17 1 25 10 13 14 12 15 -2 10 -9 -4 -25 2 -37 13 -24
22 -29 38 -6 19 8 -6 19 -9 24 -5 7 4 8 -1 4 -12 -6 -17 -5 -17 14 0 11 9 23
14 27 10 7 -8 28 -11 88 -15 21 -2 25 -5 18 -19 -5 -9 -6 -20 -2 -25 4 -5 -5
2 -20 15 -16 14 -31 21 -35 16 -5 -4 -2 -10 5 -12 6 -3 10 -8 8 -12 -6 -9 9
-12 101 -14 39 -1 70 -4 68 -7 -2 -4 7 -6 20 -6 14 0 27 6 29 13 7 16 -6 17
-22 1 -9 -9 -9 -6 0 14 l12 25 19 -21 18 -21 -6 25 c-5 21 -4 22 5 7 12 -19 4
-41 -11 -32 -5 4 -9 2 -9 -4 0 -13 77 -8 91 6 7 7 9 16 5 20 -4 4 -11 1 -16
-7 -6 -8 -10 -10 -10 -5 0 14 13 30 27 32 7 2 10 -8 8 -26 -2 -18 1 -28 10
-28 7 0 11 6 8 14 -4 9 0 11 11 7 9 -3 13 -11 9 -18 -5 -8 -3 -8 8 0 8 6 35 9
62 8 26 -2 47 1 47 7 0 5 17 6 38 3 31 -5 35 -4 22 8 -9 7 -23 22 -30 33 -14
19 -14 19 3 6 15 -12 20 -11 36 3 13 11 21 14 26 7 4 -8 13 -8 28 0 21 10 21
10 3 -5 -11 -9 -24 -16 -29 -16 -4 0 -5 -5 -1 -12 4 -7 3 -8 -4 -4 -6 4 -8 14
-5 24 5 15 3 14 -16 -3 l-23 -19 29 -8 c15 -4 36 -5 45 -2 9 2 27 7 40 10 13
3 32 7 43 9 11 3 29 7 40 9 11 2 27 6 35 8 8 1 22 17 30 35 14 29 17 31 27 14
10 -15 9 -18 -4 -17 -9 0 -18 -4 -20 -11 -4 -12 14 -12 35 0 6 5 12 5 12 1 0
-3 7 -1 15 6 8 7 15 9 15 6 0 -4 9 -2 20 4 20 11 19 30 -1 30 -6 0 -8 -4 -4
-9 3 -5 1 -12 -4 -15 -5 -4 -8 2 -6 11 2 10 4 22 4 27 1 5 8 3 16 -4 12 -10
16 -9 21 4 10 27 43 40 62 24 14 -11 15 -11 9 5 -4 11 -3 16 4 12 6 -4 8 -13
5 -21 -3 -7 -1 -16 4 -19 6 -4 10 -2 10 4 0 6 6 8 14 5 7 -3 20 1 27 8 31 29
53 44 45 29 -10 -15 -10 -15 57 19 26 13 47 28 47 33 0 4 4 6 9 3 17 -11 44
21 44 51 0 30 1 30 21 12 24 -23 32 -24 44 -3 5 9 11 15 13 14 11 -4 38 13 33
22 -3 5 -11 2 -18 -7 -10 -15 -12 -14 -11 8 0 25 46 72 59 60 3 -3 6 -1 6 5 0
7 5 12 11 12 8 0 7 -6 -2 -17 -12 -15 -12 -16 6 -9 16 6 17 5 8 -5 -10 -10
-15 -9 -28 1 -17 14 -21 1 -5 -18 7 -9 7 -9 -2 -2 -17 14 -25 12 -25 -5 0 -22
25 -18 57 9 19 16 25 27 19 33 -7 7 -3 9 13 6 17 -3 37 9 81 50 31 30 57 53
57 50 0 -2 18 13 41 34 26 24 39 43 36 55 -3 10 -1 18 4 18 5 0 9 -5 9 -11 0
-5 5 -7 11 -4 6 4 8 9 6 12 -3 2 8 17 24 32 33 32 38 46 10 32 -18 -10 -31 -6
-31 11 0 4 10 7 21 5 12 -1 24 4 26 11 3 7 -1 10 -11 6 -16 -6 -23 11 -8 20
15 9 35 -12 28 -29 -4 -11 -2 -15 6 -12 7 2 11 13 10 23 -2 10 -1 16 3 12 7
-7 45 27 45 41 0 5 10 15 23 24 21 14 21 15 2 14 -11 -1 -25 -10 -31 -21 -8
-13 -13 -15 -18 -7 -4 6 -2 11 4 11 6 0 8 5 5 10 -4 6 -12 7 -18 4 -7 -4 -8
-3 -4 2 5 5 20 9 35 10 46 2 49 3 75 43 22 34 24 40 10 45 -16 7 -43 -10 -43
-26 0 -6 7 -5 15 2 9 7 18 10 22 7 3 -4 -2 -9 -11 -13 -9 -3 -13 -10 -10 -15
3 -5 1 -9 -3 -9 -5 0 -13 8 -20 18 -9 15 -7 21 8 31 11 6 17 16 14 21 -3 5 0
12 6 16 8 5 9 3 4 -6 -5 -8 -3 -11 6 -8 8 3 13 14 11 25 -2 16 3 21 22 20 14
0 23 -4 20 -9 -3 -5 -13 -7 -21 -4 -9 4 -13 1 -11 -6 8 -24 29 -13 55 31 14
24 22 41 17 38 -5 -3 -10 16 -10 41 0 26 1 39 3 29 3 -9 9 -15 14 -12 5 4 5
15 -2 27 -9 16 -8 19 2 13 9 -6 11 -3 6 8 -3 9 -2 19 2 21 5 3 7 -13 6 -35 -2
-26 1 -38 9 -36 6 3 10 10 8 16 -1 7 5 19 13 27 8 9 13 20 10 25 -4 5 -3 9 2
9 14 0 32 49 21 57 -7 3 -8 1 -4 -5 5 -8 1 -10 -10 -5 -12 4 -15 3 -10 -6 4
-6 2 -19 -5 -27 -10 -12 -14 -12 -20 -2 -5 7 -9 18 -9 23 0 6 4 3 10 -5 5 -8
12 -11 16 -7 4 3 2 13 -4 20 -16 19 -7 25 28 21 17 -2 30 1 30 6 0 6 -5 10
-11 10 -5 0 -7 5 -4 10 3 5 1 10 -4 10 -6 0 -11 -4 -11 -10 0 -5 -4 -10 -8
-10 -5 0 -9 7 -9 14 0 8 3 15 6 14 20 -2 31 3 26 12 -4 6 -11 7 -17 4 -7 -4
-8 -2 -4 5 6 9 11 9 22 0 7 -6 12 -15 9 -19 -3 -5 -1 -11 5 -15 5 -3 10 3 10
14 0 11 5 23 10 26 6 3 10 12 10 18 -1 7 -6 5 -13 -4 -11 -14 -16 -15 -30 -4
-16 12 -16 13 -1 19 13 5 14 9 5 20 -9 11 -9 16 0 22 7 4 9 3 5 -4 -4 -7 1
-10 14 -9 11 1 20 7 20 15 0 7 -4 11 -9 7 -5 -3 -13 0 -17 6 -4 8 -3 9 5 5 8
-5 10 0 7 18 -3 19 -1 23 10 19 8 -3 12 -13 10 -22 -3 -9 -1 -23 4 -31 8 -12
10 -11 11 8 2 30 3 35 11 47 3 6 13 37 22 70 12 46 12 61 3 67 -7 5 -19 0 -29
-13 -10 -12 -18 -18 -18 -13 0 4 7 16 17 26 11 12 12 18 3 18 -7 0 -2 9 11 20
13 10 19 19 14 20 -6 0 -17 -6 -25 -12 -12 -11 -12 -10 -1 5 8 9 19 17 25 16
27 -3 36 2 35 24 0 22 5 66 17 140 5 30 2 41 -12 52 -11 7 -21 12 -25 10 -3
-2 -6 2 -6 10 0 8 5 15 10 15 5 0 4 7 -3 15 -9 10 -9 15 -1 15 6 0 12 -6 12
-12 1 -7 2 -19 3 -27 0 -8 7 -16 15 -19 8 -3 11 0 7 6 -3 6 -2 22 4 36 6 17 6
26 0 26 -6 0 -10 -5 -10 -12 0 -6 -3 -8 -7 -4 -5 4 1 14 11 22 17 12 17 14 4
14 -9 0 -20 -5 -23 -10 -3 -5 -12 -10 -18 -10 -7 0 -4 5 6 11 9 5 17 14 17 19
0 5 -8 7 -17 4 -15 -5 -16 -4 -3 5 13 10 13 12 0 22 -12 9 -12 10 4 5 14 -5
17 -2 12 10 -3 8 -6 18 -6 20 0 3 -5 2 -12 -2 -7 -4 -8 -3 -4 5 4 6 11 9 16 6
21 -13 37 7 35 46 -2 39 -19 64 -37 53 -14 -9 -9 -24 6 -18 8 3 17 1 21 -5 4
-7 -1 -8 -12 -4 -16 6 -16 5 -4 -10 7 -9 9 -17 5 -17 -17 0 -36 42 -25 53 7 7
5 14 -7 23 -16 12 -16 12 2 11 10 -1 21 3 23 9 2 7 -4 11 -14 10 -19 -1 -22
27 -9 82 4 18 2 22 -10 18 -9 -3 -12 -1 -9 4 3 6 3 16 -2 23 -12 19 -10 40 6
60 15 18 2 24 -15 7 -7 -7 -11 -6 -11 3 0 24 40 15 42 -10 1 -12 -3 -19 -10
-17 -6 3 -11 -5 -11 -16 0 -12 5 -19 13 -16 7 3 15 0 19 -6 4 -7 3 -8 -4 -4
-7 4 -12 3 -12 -3 0 -5 5 -13 10 -16 6 -4 8 -11 5 -16 -4 -5 -1 -9 4 -9 6 0
11 -5 11 -11 0 -5 -5 -7 -11 -3 -7 4 -10 1 -7 -6 7 -21 28 -24 28 -3 -1 10 -7
44 -14 75 -8 31 -11 60 -7 63 9 10 -29 34 -44 29 -16 -7 -29 12 -15 21 6 4 18
1 26 -6 8 -6 17 -9 21 -5 3 3 1 6 -5 6 -7 0 -12 5 -12 11 0 5 4 8 9 5 9 -6 -4
44 -21 77 -5 10 -6 23 -2 29 5 8 2 9 -9 5 -10 -3 -17 -2 -17 3 0 6 5 10 11 10
7 0 8 7 4 18 -4 9 -8 22 -8 29 0 7 -10 11 -21 10 -15 -1 -21 3 -20 16 1 10 -4
16 -11 15 -8 -2 -13 1 -12 7 1 5 10 10 19 10 9 1 15 -2 12 -7 -3 -4 0 -8 5 -8
15 0 14 12 -5 38 -8 12 -13 22 -9 22 3 0 -6 22 -19 49 -14 27 -23 50 -21 52 2
3 -5 15 -15 29 -16 21 -20 22 -34 10 -13 -10 -19 -11 -29 -1 -9 10 -8 11 5 6
12 -5 20 -1 24 9 3 9 10 14 14 11 5 -3 -1 12 -13 34 -12 22 -26 37 -31 34 -5
-4 -7 1 -3 9 9 24 -14 48 -51 52 -43 5 -47 10 -17 24 18 8 24 8 22 0 -1 -6 5
-13 13 -15 13 -4 13 -3 0 6 -8 6 -12 11 -7 11 4 0 -5 18 -19 40 -17 26 -33 39
-41 35 -8 -3 -17 -5 -19 -5 -3 0 -2 -4 1 -10 3 -5 1 -10 -5 -10 -7 0 -9 8 -4
22 6 21 5 22 -12 8 -15 -11 -16 -11 -6 0 18 21 15 34 -5 19 -10 -7 -15 -9 -11
-5 4 5 -2 17 -14 27 -11 11 -17 19 -13 19 5 0 17 -7 27 -17 10 -9 18 -12 18
-6 0 20 -37 44 -56 37 -10 -4 -16 -3 -11 1 4 5 0 16 -8 25 -9 10 -15 23 -13
30 2 7 -3 15 -10 17 -8 3 -10 -2 -6 -14 5 -15 4 -15 -5 -3 -14 21 4 37 24 20
23 -19 19 6 -4 31 -19 21 -41 19 -41 -3 0 -7 6 -6 15 2 10 9 15 9 15 1 0 -6
-3 -11 -7 -12 -5 0 -15 -2 -24 -4 -10 -2 -16 3 -15 13 0 9 -5 17 -11 17 -7 0
-13 3 -13 8 0 4 0 12 0 17 0 6 5 10 11 10 5 0 7 -5 3 -12 -5 -7 -2 -9 9 -5 12
4 14 2 10 -11 -6 -15 -5 -15 10 -3 16 13 11 20 -58 87 -66 66 -109 95 -89 62
4 -7 3 -8 -4 -4 -7 4 -12 2 -12 -3 0 -10 6 -13 39 -15 8 -1 16 -8 18 -16 4
-12 3 -13 -5 -1 -8 11 -12 10 -21 -5 -10 -18 -10 -18 -11 -1 0 10 -4 16 -9 13
-14 -9 -22 23 -11 44 7 13 7 21 0 25 -5 3 -10 3 -10 0 0 -3 -12 7 -27 23 -32
32 -113 96 -113 88 0 -3 -12 6 -27 20 -14 13 -28 22 -30 20 -3 -2 -13 4 -24
15 -21 21 -49 25 -49 8 0 -6 7 -9 14 -6 10 4 13 1 10 -8 -6 -13 -49 -14 -62 0
-4 4 2 5 13 1 16 -5 20 -1 22 21 1 26 0 27 -13 8 -8 -10 -14 -15 -14 -11 0 5
-7 3 -15 -4 -9 -8 -15 -8 -15 -2 0 6 9 14 20 17 11 3 20 10 20 14 0 6 -103 62
-120 66 -3 0 -16 7 -29 14 -19 11 -22 11 -16 -1 5 -7 5 -10 0 -6 -10 10 -37
-11 -29 -23 3 -5 -2 -6 -12 -2 -15 5 -15 7 0 15 9 5 13 14 10 20 -4 7 -2 8 4
4 7 -4 12 -2 12 3 0 6 -9 11 -21 11 -15 0 -19 -5 -15 -16 3 -9 2 -12 -4 -9 -6
4 -9 13 -8 21 4 21 -110 68 -128 53 -7 -6 -10 -18 -7 -26 4 -11 3 -14 -6 -9
-7 5 -10 14 -7 22 8 20 -11 17 -24 -3 -11 -17 -11 -17 -6 0 3 9 1 17 -4 17 -6
0 -10 -4 -10 -10 0 -5 -5 -10 -11 -10 -5 0 -7 5 -3 12 5 8 0 9 -14 6 -12 -4
-20 -2 -17 3 3 4 28 7 55 5 28 -1 50 1 50 6 0 7 -25 12 -57 11 -7 -1 -13 3
-13 8 0 5 -5 9 -11 9 -5 0 -7 -4 -4 -10 3 -5 1 -10 -4 -10 -6 0 -11 7 -11 15
0 8 -6 15 -12 16 -7 0 -23 2 -36 5 -14 2 -21 0 -17 -6 3 -6 -1 -7 -9 -4 -9 3
-16 1 -16 -5 0 -14 33 -14 46 -1 13 13 39 -14 29 -30 -8 -13 -25 -13 -25 1 0
5 5 7 10 4 6 -3 10 -2 10 4 0 16 -20 23 -25 9 -3 -7 -16 -14 -28 -14 -26 -2
-32 21 -13 45 9 11 8 13 -4 9 -8 -3 -26 -1 -40 4 -14 5 -39 11 -55 12 -17 2
-44 6 -60 10 -17 3 -57 8 -89 11 -48 4 -57 2 -45 -8 8 -6 22 -21 29 -31 13
-18 13 -19 0 -10 -8 5 -37 9 -65 10 -27 1 -59 5 -69 9 -15 7 -17 5 -11 -6 5
-8 -1 -5 -13 5 -12 11 -25 16 -29 12 -4 -4 -1 -11 7 -16 10 -6 11 -10 3 -10
-7 0 -17 9 -23 20 -6 11 -15 20 -21 20 -6 0 -6 -6 0 -18 8 -15 6 -18 -14 -18
-13 0 -23 4 -22 10 1 5 -6 12 -15 14 -10 2 -18 -2 -18 -8 0 -6 5 -8 12 -4 7 4
8 3 4 -5 -8 -12 -26 -6 -26 10 0 19 31 21 50 4 22 -20 28 -7 8 14 -9 10 -9 12
-1 7 6 -3 14 -3 17 2 5 9 -4 10 -44 4z m348 -26 c12 1 20 -1 17 -4 -3 -3 2
-14 12 -24 20 -23 10 -24 -13 -1 -19 20 -57 26 -50 8 2 -6 -2 -12 -9 -12 -10
0 -11 5 -5 17 5 10 6 21 2 26 -4 5 0 4 8 -2 8 -6 25 -9 38 -8z m-58 -6 c0 -5
-2 -10 -4 -10 -3 0 -8 5 -11 10 -3 6 -1 10 4 10 6 0 11 -4 11 -10z m114 -11
c-2 -4 5 -7 16 -6 11 1 20 5 20 9 0 5 11 1 25 -8 13 -8 28 -13 32 -11 5 3 9
-3 9 -13 0 -18 -2 -18 -18 -4 -18 17 -43 10 -32 -8 4 -7 2 -8 -5 -4 -9 6 -9
11 -1 21 9 11 7 14 -9 12 -13 -1 -20 -6 -17 -14 7 -18 2 -16 -22 10 -17 18
-19 24 -8 24 8 0 13 -4 10 -8z m-790 -44 c-4 -10 1 -12 18 -9 21 4 21 4 3 -5
-14 -6 -25 -4 -39 8 -18 15 -18 15 -12 -9 6 -21 5 -22 -4 -7 -14 22 -5 38 17
30 12 -5 14 -3 8 7 -5 8 -4 11 3 6 6 -4 9 -13 6 -21z m-49 -22 c3 -11 0 -11
-16 -3 -23 13 -53 -4 -42 -24 3 -6 3 -8 -2 -4 -4 4 -16 3 -26 -2 -23 -13 -36
5 -19 25 15 17 30 20 30 4 0 -5 -4 -8 -9 -4 -10 6 -26 -13 -18 -21 3 -3 17 6
32 20 28 26 61 30 70 9z m1182 -30 c1 -22 -1 -24 -8 -10 -6 9 -7 22 -4 27 9
14 10 13 12 -17z m-1207 13 c0 -3 -4 -8 -10 -11 -5 -3 -10 -1 -10 4 0 6 5 11
10 11 6 0 10 -2 10 -4z m1240 -27 c0 -28 -15 -23 -16 6 -1 14 2 22 7 19 5 -3
9 -14 9 -25z m50 -2 c8 -3 3 -5 -11 -4 -14 1 -26 7 -26 14 0 8 5 9 11 4 6 -4
18 -11 26 -14z m-1510 -17 c0 -5 -5 -10 -11 -10 -5 0 -7 5 -4 10 3 6 8 10 11
10 2 0 4 -4 4 -10z m34 -21 c-3 -5 -10 -7 -15 -4 -5 4 -9 1 -9 -6 0 -7 -3 -9
-6 -6 -4 4 -2 13 4 20 7 8 8 18 4 23 -4 4 1 2 10 -5 10 -7 15 -17 12 -22z
m1490 4 c5 -12 4 -13 -7 -5 -8 7 -16 9 -19 6 -3 -3 -8 -1 -11 3 -3 5 3 9 13
10 10 1 21 -5 24 -14z m126 -45 c0 6 8 12 17 12 15 0 14 -2 -3 -15 -15 -11
-16 -14 -3 -15 8 0 20 5 27 12 9 9 12 9 12 -1 0 -7 4 -10 8 -7 4 2 14 1 21 -3
9 -6 10 -11 2 -15 -6 -4 -11 -3 -11 1 0 5 -9 9 -20 10 -11 1 -18 -2 -15 -7 3
-4 -4 -6 -15 -3 -20 5 -60 52 -60 70 0 4 9 -5 20 -22 11 -16 20 -24 20 -17z
m-42 12 c12 -19 11 -20 -8 -8 -11 7 -20 16 -20 20 0 15 15 8 28 -12z m-1812
-72 c-2 -15 -9 -22 -21 -20 -10 2 -14 -1 -10 -7 4 -7 0 -8 -11 -4 -14 5 -16 3
-10 -13 6 -16 5 -17 -6 -6 -11 11 -10 16 4 26 10 7 15 16 11 20 -4 4 0 4 10 0
11 -4 19 0 23 10 9 23 14 20 10 -6z m2030 -26 c-4 -13 0 -18 14 -19 13 -1 18
2 14 9 -4 7 -2 8 4 4 6 -4 8 -14 5 -24 -6 -15 -5 -16 12 -2 10 8 16 10 12 3
-4 -6 -4 -13 0 -16 5 -2 2 -2 -4 -1 -15 4 -17 -12 -4 -21 5 -3 17 2 25 11 9 8
16 11 16 5 0 -6 -9 -15 -19 -21 -16 -8 -23 -5 -41 20 -12 17 -25 28 -30 25
-12 -8 -21 11 -14 29 8 22 17 20 10 -2z m-2106 -38 c0 -5 -5 -3 -12 4 -7 7
-17 12 -22 12 -6 0 -5 -5 2 -12 13 -13 16 -29 5 -27 -20 3 -34 -2 -28 -11 3
-5 2 -10 -4 -10 -16 0 -5 50 14 64 16 11 21 11 32 0 7 -7 13 -16 13 -20z m-84
-33 c-1 -16 -5 -33 -9 -38 -5 -4 -5 1 -1 12 7 18 5 18 -18 -2 -26 -25 -38 -29
-38 -13 0 6 5 9 11 8 6 -2 14 3 17 11 3 9 0 11 -8 6 -8 -5 -11 -4 -6 3 4 6 13
9 20 6 8 -3 16 4 19 15 8 30 15 26 13 -8z m2303 2 c-3 -19 2 -33 12 -33 6 0 8
7 5 16 -3 8 -2 12 4 9 16 -10 12 -23 -10 -35 -15 -8 -20 -8 -18 2 2 6 -2 12
-9 13 -6 0 -15 4 -20 9 -4 5 -3 6 3 3 7 -4 14 0 18 8 6 15 17 21 15 8z m45
-48 c-10 -8 -23 -15 -28 -15 -6 0 -1 7 10 15 10 8 23 15 28 15 6 0 1 -7 -10
-15z m53 -67 c-1 -9 -5 -14 -9 -12 -5 3 -6 9 -3 13 2 5 -2 17 -10 27 -8 10
-14 24 -14 29 -1 6 8 -1 18 -15 11 -13 19 -32 18 -42z m-2465 45 c-6 -2 -9
-10 -6 -15 4 -7 2 -8 -5 -4 -13 9 -5 26 12 25 9 0 8 -2 -1 -6z m2428 -18 c14
-19 14 -19 -2 -6 -10 7 -18 18 -18 24 0 6 1 8 3 6 1 -2 9 -13 17 -24z m-2520
-66 c0 -5 -6 -8 -12 -6 -7 1 -12 -4 -10 -10 1 -7 -2 -13 -8 -13 -13 0 -13 17
0 25 6 4 8 11 5 16 -3 5 1 6 9 3 9 -3 16 -10 16 -15z m2716 -66 c-4 -5 -66 56
-66 65 0 3 16 -9 35 -28 19 -18 33 -35 31 -37z m-2796 37 c0 -5 -5 -10 -11
-10 -5 0 -7 5 -4 10 3 6 8 10 11 10 2 0 4 -4 4 -10z m2729 1 c9 -6 10 -11 2
-15 -6 -4 -11 -2 -11 4 0 6 -4 8 -10 5 -5 -3 -10 -1 -10 4 0 13 10 14 29 2z
m36 -31 c11 -17 -5 -32 -21 -19 -7 6 -11 15 -8 20 7 12 21 11 29 -1z m-2805
-24 c0 -8 6 -17 13 -19 9 -4 9 -6 0 -6 -7 -1 -17 8 -23 19 -7 14 -7 20 0 20 5
0 10 -6 10 -14z m-10 -30 c14 -18 14 -18 -7 -6 -12 8 -19 18 -16 23 3 4 6 7 7
5 1 -2 8 -12 16 -22z m-50 -62 c0 -8 -5 -14 -11 -14 -5 0 -7 -4 -4 -10 10 -16
-1 -12 -15 6 -11 12 -11 15 0 12 7 -2 15 3 17 10 3 8 -2 10 -14 6 -14 -5 -15
-4 -3 4 17 13 30 6 30 -14z m-35 -34 c16 -17 16 -20 3 -15 -9 4 -19 13 -22 21
-7 19 -2 18 19 -6z m-77 -130 c-7 -10 -14 -17 -17 -15 -4 4 18 35 25 35 2 0
-1 -9 -8 -20z m3230 -21 c-5 -3 -9 -10 -8 -15 1 -5 -4 -10 -12 -12 -8 -2 -9 0
-3 5 6 4 11 17 13 28 3 20 2 20 -13 1 -18 -23 -20 -14 -3 13 11 18 13 18 24 3
8 -11 9 -19 2 -23z m-3279 -23 c9 -11 9 -16 0 -22 -8 -5 -9 -3 -4 6 6 9 2 10
-15 5 -20 -6 -21 -5 -9 8 17 20 14 20 28 3z m-23 -67 c-9 -13 -16 -18 -16 -12
0 7 5 15 11 18 6 4 8 14 4 24 -5 12 -3 13 6 4 9 -9 8 -17 -5 -34z m-25 4 c-8
-15 -10 -15 -11 -2 0 17 10 32 18 25 2 -3 -1 -13 -7 -23z m3382 8 c4 0 7 -6 7
-13 0 -9 -3 -9 -12 0 -7 7 -17 12 -22 12 -6 -1 -2 -8 9 -18 11 -9 21 -28 22
-42 2 -18 0 -21 -7 -10 -5 8 -6 18 -4 22 3 4 2 8 -3 8 -4 0 -16 11 -25 24 -16
22 -16 23 5 21 12 -1 25 -3 30 -4z m38 -79 c-6 -2 -11 -8 -11 -14 0 -6 8 -7
18 -3 12 4 14 3 6 -5 -16 -16 -48 -1 -33 16 6 7 7 19 3 26 -5 9 -2 8 10 -2 11
-8 14 -16 7 -18z m32 -69 c-4 -11 -3 -14 5 -9 7 4 12 2 12 -3 0 -6 -4 -11 -9
-11 -14 0 -23 18 -16 30 10 16 15 12 8 -7z m7 -39 c0 12 50 -54 50 -66 0 -4
-11 -7 -25 -6 -13 1 -22 4 -20 7 3 2 0 10 -6 18 -6 7 -8 13 -4 13 4 0 14 -8
21 -17 18 -26 26 -11 8 16 -9 13 -22 20 -31 17 -8 -3 -12 -2 -9 3 3 5 -1 14
-9 21 -8 7 -15 17 -15 22 0 6 9 0 20 -13 10 -13 19 -20 20 -15z m55 -98 c12
-11 10 -13 -13 -13 -15 0 -21 2 -14 4 6 3 10 9 6 14 -8 14 6 11 21 -5z m48
-110 c4 -11 1 -13 -10 -9 -10 4 -14 2 -10 -4 3 -5 0 -10 -8 -10 -20 0 -19 7 3
23 21 17 19 17 25 0z m-13 -46 c0 -5 -2 -10 -4 -10 -3 0 -8 5 -11 10 -3 6 -1
10 4 10 6 0 11 -4 11 -10z m25 -46 c-18 -19 -31 -18 -15 1 6 8 8 20 4 27 -6
10 -4 10 9 0 14 -12 14 -16 2 -28z m12 -18 c-3 -7 0 -20 6 -27 10 -11 9 -11
-5 0 -13 10 -18 10 -18 2 0 -7 -4 -10 -10 -6 -5 3 -2 14 8 25 21 23 26 24 19
6z m-3787 -88 c0 -5 -9 -3 -20 4 -11 7 -20 16 -20 20 0 5 9 3 20 -4 11 -7 20
-16 20 -20z m-20 -13 c7 -9 8 -15 2 -15 -5 0 -12 7 -16 15 -3 8 -4 15 -2 15 2
0 9 -7 16 -15z m-4 -43 c10 -15 8 -18 -7 -19 -10 -1 -21 2 -24 8 -4 5 2 6 12
2 16 -6 16 -5 4 10 -7 9 -9 17 -5 17 5 0 14 -8 20 -18z m-20 -48 c-4 -10 1
-25 9 -34 11 -12 13 -20 5 -25 -6 -3 -10 -3 -9 2 3 20 -2 27 -11 13 -6 -10 -4
-20 6 -31 11 -13 13 -22 6 -36 -6 -10 -9 -34 -7 -54 3 -26 -1 -38 -15 -47 -14
-9 -19 -8 -24 3 -3 9 0 12 8 9 8 -3 17 -1 21 5 3 6 -1 11 -9 11 -9 0 -16 4
-16 10 0 5 7 7 15 4 10 -4 13 0 10 16 -2 12 -9 28 -15 35 -12 15 3 30 20 20
16 -10 12 11 -5 25 -11 9 -12 17 -4 31 7 14 6 19 -2 19 -8 0 -9 4 0 13 6 8 8
17 4 20 -3 4 -1 7 6 7 8 0 11 -6 7 -16z m0 -233 c0 -11 -4 -19 -9 -18 -5 1
-12 -4 -15 -12 -2 -8 0 -11 6 -7 6 3 14 1 18 -5 4 -8 3 -9 -4 -5 -16 9 -15 -7
0 -22 9 -9 9 -15 0 -24 -16 -16 -15 -31 1 -22 6 4 4 -2 -5 -13 -10 -11 -18
-23 -18 -28 0 -4 8 -1 18 6 13 11 13 9 -2 -9 -16 -19 -17 -25 -6 -35 9 -8 11
-9 6 0 -3 6 -3 14 2 17 4 2 9 -4 9 -15 2 -21 -26 -27 -29 -6 0 6 -2 17 -2 22
-1 6 -5 15 -9 21 -4 7 -1 14 6 17 14 5 16 75 3 95 -4 7 1 23 10 37 20 30 20
30 20 6z m3899 -2 c-6 -9 -45 -8 -45 2 0 4 11 7 25 7 13 0 22 -4 20 -9z m-20
-217 c17 -12 16 -39 -2 -46 -14 -6 -15 -4 -6 5 13 13 6 42 -8 33 -5 -3 -9 0
-9 5 0 13 11 14 25 3z m-3891 -24 c-3 -13 -5 -30 -5 -38 1 -8 2 -24 2 -35 1
-11 3 -14 6 -7 6 17 20 15 27 -4 3 -9 2 -12 -5 -9 -5 4 -16 2 -23 -4 -9 -8
-13 -4 -14 17 -1 15 -2 38 -3 52 -2 38 0 50 10 50 6 0 7 -10 5 -22z m3869 -13
c-3 -9 -8 -14 -10 -11 -3 3 -2 9 2 15 9 16 15 13 8 -4z m-3847 -24 c0 -11 -4
-17 -8 -15 -4 3 -8 12 -8 20 0 8 4 14 8 14 4 0 8 -9 8 -19z m3864 -12 c0 -5
-4 -7 -10 -4 -5 3 -10 1 -10 -4 0 -6 5 -11 10 -11 21 0 9 -16 -12 -17 -13 0
-17 1 -10 4 6 3 10 9 6 14 -6 11 4 29 17 29 5 0 9 -5 9 -11z m0 -60 c0 -5 -4
-7 -10 -4 -5 3 -10 1 -10 -4 0 -6 6 -11 13 -12 9 0 9 -2 -1 -6 -10 -4 -10 -8
-1 -19 7 -8 7 -14 1 -14 -19 0 -34 51 -17 62 14 11 25 10 25 -3z m-3855 -9 c3
-5 2 -10 -4 -10 -5 0 -13 5 -16 10 -3 6 -2 10 4 10 5 0 13 -4 16 -10z m7 -44
c6 -11 7 -18 3 -14 -5 4 -14 3 -22 -3 -7 -6 -13 -8 -14 -3 0 5 -2 19 -3 31 -3
26 20 20 36 -11z m3813 4 c3 -5 1 -10 -4 -10 -6 0 -11 5 -11 10 0 6 2 10 4 10
3 0 8 -4 11 -10z m6 -109 c-7 -5 -11 -13 -7 -19 8 -13 -3 -42 -16 -42 -5 0 -6
5 -2 12 5 7 2 9 -9 5 -11 -4 -14 -2 -10 9 4 12 8 12 21 2 13 -11 15 -10 9 5
-8 22 -1 37 16 37 8 0 7 -3 -2 -9z m-41 -71 c0 -5 -2 -10 -4 -10 -3 0 -8 5
-11 10 -3 6 -1 10 4 10 6 0 11 -4 11 -10z m20 -20 c-12 -22 -25 -26 -35 -10
-3 6 1 7 9 4 11 -4 16 0 16 10 0 9 5 16 10 16 7 0 7 -6 0 -20z m-3650 -275
c12 -17 12 -18 0 -7 -23 20 -35 14 -15 -8 10 -11 23 -17 29 -13 6 3 8 3 4 -2
-4 -4 -1 -17 7 -29 17 -23 20 -46 5 -46 -5 0 -6 8 -3 18 6 15 5 16 -13 2 -18
-14 -18 -14 -5 3 11 14 11 20 1 32 -7 8 -17 15 -23 15 -7 0 -7 -4 1 -12 7 -7
12 -16 12 -22 0 -5 -6 -1 -14 9 -8 11 -11 26 -8 34 3 9 1 12 -5 8 -6 -4 -10
-1 -9 5 2 14 17 41 20 36 1 -2 8 -12 16 -23z m3540 -29 c0 -3 -4 -8 -10 -11
-5 -3 -10 -1 -10 4 0 6 5 11 10 11 6 0 10 -2 10 -4z m-80 -106 c0 -5 -2 -10
-4 -10 -3 0 -8 5 -11 10 -3 6 -1 10 4 10 6 0 11 -4 11 -10z m-27 -27 c-6 -16
-5 -16 10 -4 16 13 20 11 15 -6 -2 -4 -11 -9 -20 -10 -18 -3 -25 17 -11 30 11
11 13 8 6 -10z m-3332 -20 c13 -16 12 -17 -3 -4 -14 11 -18 11 -18 1 0 -8 -3
-11 -6 -7 -5 5 3 27 10 27 2 0 10 -8 17 -17z m4 -33 c4 -6 10 -8 15 -5 4 3 6
-4 3 -15 -7 -26 -19 -34 -29 -19 -4 8 -3 9 4 5 14 -8 15 -4 6 18 -3 9 -10 16
-16 16 -5 0 -6 -5 -2 -12 4 -7 3 -8 -5 -4 -12 8 -6 26 9 26 5 0 12 -5 15 -10z
m3245 -112 c0 -4 -8 -6 -19 -5 -15 1 -17 4 -8 19 8 13 13 14 19 5 4 -7 8 -15
8 -19z m-68 -90 c-12 -12 -32 -2 -31 15 0 9 2 9 6 0 9 -23 25 -14 18 10 -5 20
-5 20 6 4 7 -13 8 -22 1 -29z m-2998 -39 c-10 -17 -41 -5 -39 16 1 11 -3 29
-8 40 -5 11 5 5 21 -14 17 -19 29 -38 26 -42z m2909 -66 c-14 -7 -30 -13 -37
-12 -6 0 -1 4 12 9 12 5 22 15 22 21 0 8 -6 7 -17 -2 -16 -13 -17 -12 -5 3 11
14 17 15 32 6 17 -11 17 -13 -7 -25z m-49 -29 c3 -8 2 -12 -4 -9 -6 3 -10 4
-10 1 0 -2 -3 -13 -7 -23 -6 -16 -5 -16 10 -4 28 23 28 8 -1 -19 -14 -14 -23
-20 -19 -13 8 14 -2 45 -13 38 -4 -2 -6 -16 -5 -30 4 -28 -9 -34 -19 -9 -4 10
-2 13 6 8 7 -5 9 -2 5 9 -6 16 15 42 26 31 3 -3 8 4 12 15 8 25 11 26 19 5z
m-74 -96 c0 -5 -5 -8 -11 -8 -5 0 -7 5 -4 10 3 6 2 10 -3 10 -16 0 -22 -13
-12 -26 8 -8 6 -17 -5 -28 -20 -20 -26 -20 -51 -1 -18 15 -18 15 0 8 14 -5 17
-3 11 7 -5 8 -4 11 2 7 5 -3 20 8 33 25 17 23 24 27 31 17 5 -8 9 -17 9 -21z
m-2577 -13 c-3 -9 -8 -14 -10 -11 -3 3 -2 9 2 15 9 16 15 13 8 -4z m2476 -51
c4 3 13 1 19 -3 10 -6 9 -11 -3 -21 -13 -11 -14 -10 -9 4 4 11 2 16 -6 14 -7
-2 -14 3 -15 10 -2 7 -1 8 2 2 2 -5 8 -8 12 -6z m-18 -21 c11 -15 11 -16 0 -6
-7 6 -21 9 -30 6 -14 -4 -14 -3 -1 6 8 6 16 11 16 11 1 0 8 -8 15 -17z m-2267
-67 c8 3 16 1 19 -3 3 -5 -9 -9 -27 -10 -24 0 -32 4 -33 18 -2 17 0 17 13 5 8
-9 21 -13 28 -10z m2136 -26 c0 -5 -7 -7 -15 -4 -8 4 -15 8 -15 10 0 2 7 4 15
4 8 0 15 -4 15 -10z m-16 -26 c7 -19 2 -18 -19 6 -16 17 -16 20 -3 15 9 -4 19
-13 22 -21z m-68 -29 c0 -14 -6 -27 -13 -29 -7 -3 -10 1 -7 10 2 7 6 21 9 29
7 23 13 18 11 -10z m-30 2 c-1 -6 -10 -23 -20 -37 l-18 -25 8 25 c6 22 5 23
-9 11 -9 -7 -14 -17 -11 -22 9 -15 -7 -10 -24 8 -16 16 -16 16 0 11 9 -4 22
-1 28 7 6 8 18 11 26 8 8 -3 14 -2 13 3 -2 13 0 24 5 24 2 0 3 -6 2 -13z
m-1807 -44 c2 -2 0 -3 -6 -3 -6 0 -21 9 -34 21 l-24 20 30 -17 c17 -10 32 -19
34 -21z m-19 -24 c0 -6 -4 -7 -10 -4 -5 3 -10 11 -10 16 0 6 5 7 10 4 6 -3 10
-11 10 -16z m60 4 c0 -3 -7 -2 -16 1 -12 5 -14 1 -9 -16 6 -18 5 -19 -8 -7
-10 9 -12 18 -5 26 9 11 38 8 38 -4z m1660 -7 c-27 -18 -38 -21 -49 -13 -11
10 -13 8 -7 -10 4 -12 2 -24 -3 -28 -7 -4 -8 1 -4 12 6 15 4 16 -9 5 -13 -10
-17 -10 -21 2 -4 10 -1 13 7 10 7 -3 16 2 20 12 5 13 9 14 20 5 9 -8 17 -8 20
-2 3 5 3 11 -1 14 -5 2 -3 3 3 1 6 -1 17 2 25 7 32 20 31 7 -1 -15z m40 0 c0
-2 -7 -7 -16 -10 -8 -3 -12 -2 -9 4 6 10 25 14 25 6z m-1661 -17 c5 8 11 9 15
3 12 -19 -35 -25 -53 -7 -15 16 -15 16 7 4 19 -12 24 -12 31 0z m31 -30 c-12
-8 -11 -9 5 -6 11 2 19 8 18 15 -2 7 4 9 14 5 12 -5 13 -8 4 -11 -11 -4 -11
-6 0 -12 7 -5 -1 -7 -22 -6 -53 5 -54 5 -33 20 10 8 21 12 24 10 2 -3 -2 -10
-10 -15z m99 -14 c7 3 8 0 5 -9 -5 -12 -9 -13 -25 -3 -10 6 -19 16 -19 21 0 4
7 3 15 -4 8 -6 19 -9 24 -5z m51 -31 c0 -8 5 -14 10 -14 6 0 10 -5 10 -10 0
-19 -36 12 -37 31 -1 11 2 17 8 14 5 -4 9 -13 9 -21z m1196 11 c-11 -8 -25
-15 -30 -15 -6 1 0 7 14 15 32 19 40 18 16 0z m-1144 -30 c-2 -10 1 -14 7 -10
6 3 19 1 28 -5 15 -9 14 -10 -6 -4 -18 5 -22 3 -15 -7 6 -11 5 -12 -8 -2 -8 7
-19 9 -23 5 -5 -4 -5 -1 -1 6 4 7 3 19 -4 27 -9 11 -7 13 7 11 11 -2 17 -10
15 -21z m43 5 c3 -6 -1 -7 -9 -4 -18 7 -21 14 -7 14 6 0 13 -4 16 -10z m1035
5 c0 -1 -14 -14 -32 -31 -17 -16 -28 -23 -24 -16 9 15 1 15 -25 1 -15 -8 -24
-7 -37 3 -13 11 -15 11 -9 -4 4 -13 2 -15 -10 -11 -12 5 -14 3 -8 -7 5 -9 4
-11 -3 -6 -6 4 -21 2 -32 -4 -35 -19 -22 -3 18 21 20 12 40 22 45 21 4 -1 7 3
7 8 0 6 5 10 11 10 8 0 8 -5 -1 -15 -14 -16 -10 -18 14 -9 9 3 14 9 11 14 -2
4 7 6 21 4 17 -1 24 2 21 10 -3 6 4 12 14 12 11 0 19 -1 19 -1z m70 -5 c0 -5
-5 -10 -11 -10 -5 0 -7 5 -4 10 3 6 8 10 11 10 2 0 4 -4 4 -10z m-1071 -16 c4
3 7 -5 8 -17 0 -12 -1 -16 -4 -9 -3 6 -8 10 -12 8 -4 -3 -7 5 -8 17 0 12 1 16
4 9 3 -6 8 -10 12 -8z m59 -39 c-3 -3 -9 2 -12 12 -6 14 -5 15 5 6 7 -7 10
-15 7 -18z m610 -20 c9 -17 7 -21 -9 -21 -11 0 -15 4 -10 9 5 5 7 17 4 26 -8
20 1 12 15 -14z m22 10 c0 -19 -6 -19 -14 0 -3 8 -1 15 4 15 6 0 10 -7 10 -15z
m-406 -7 c-5 -7 -2 -9 9 -5 11 4 14 2 10 -9 -4 -11 -9 -12 -19 -3 -11 9 -14 8
-14 -1 0 -8 -2 -11 -5 -8 -8 8 6 38 17 38 5 0 6 -5 2 -12z m63 5 c-4 -3 -2
-12 4 -20 9 -9 8 -13 0 -13 -6 0 -11 5 -11 11 0 8 -6 7 -17 -2 -15 -13 -15
-12 -2 9 8 12 18 22 23 22 5 0 6 -3 3 -7z m34 -13 c6 0 7 5 3 12 -5 7 -3 8 5
3 9 -5 9 -11 3 -17 -12 -12 -32 -2 -31 15 0 9 2 9 6 0 2 -7 9 -13 14 -13z
m110 7 c-5 -5 -7 -16 -4 -23 3 -8 -1 -14 -8 -14 -7 0 -9 3 -6 6 3 4 2 14 -3
23 -6 13 -4 17 11 17 11 0 15 -4 10 -9z m83 1 c-3 -4 0 -8 5 -8 6 0 11 4 11 8
0 4 11 8 25 8 14 0 25 -4 25 -9 0 -5 -6 -7 -12 -4 -7 2 -21 0 -30 -4 -17 -9
-48 -2 -48 10 0 4 7 8 15 8 8 0 12 -4 9 -9z m141 2 c3 -5 1 -10 -4 -10 -6 0
-11 5 -11 10 0 6 2 10 4 10 3 0 8 -4 11 -10z"/>
<path d="M875 3600 c3 -5 8 -10 11 -10 2 0 4 5 4 10 0 6 -5 10 -11 10 -5 0 -7
-4 -4 -10z"/>
<path d="M3355 3350 c3 -5 8 -10 11 -10 2 0 4 5 4 10 0 6 -5 10 -11 10 -5 0
-7 -4 -4 -10z"/>
<path d="M35 2170 c3 -5 8 -10 11 -10 2 0 4 5 4 10 0 6 -5 10 -11 10 -5 0 -7
-4 -4 -10z"/>
<path d="M55 1650 c-3 -5 -1 -10 4 -10 6 0 11 5 11 10 0 6 -2 10 -4 10 -3 0
-8 -4 -11 -10z"/>
<path d="M480 742 c0 -12 19 -26 26 -19 2 2 -2 10 -11 17 -9 8 -15 8 -15 2z"/>
<path d="M3240 495 c-7 -8 -8 -15 -2 -15 5 0 15 7 22 15 7 8 8 15 2 15 -5 0
-15 -7 -22 -15z"/>
<path d="M1953 3955 c2 -5 11 -9 20 -7 8 1 18 -2 22 -8 4 -7 13 -7 27 1 15 8
19 8 14 0 -8 -12 -5 -13 55 -15 22 0 43 2 46 7 2 4 -1 7 -8 7 -6 0 -18 8 -26
18 -13 16 -14 15 -9 -8 5 -24 4 -24 -9 -6 -11 15 -28 20 -75 21 -38 0 -59 -3
-57 -10z m117 -16 c0 -6 -4 -7 -10 -4 -5 3 -10 11 -10 16 0 6 5 7 10 4 6 -3
10 -11 10 -16z"/>
<path d="M1790 3952 c0 -10 22 -32 32 -32 5 0 3 9 -4 20 -13 20 -28 27 -28 12z"/>
<path d="M1590 3894 c0 -8 5 -12 10 -9 6 3 10 10 10 16 0 5 -4 9 -10 9 -5 0
-10 -7 -10 -16z"/>
<path d="M1293 3839 c-13 -5 -23 -10 -23 -12 0 -8 40 -5 46 4 9 15 2 18 -23 8z"/>
<path d="M1250 3817 c0 -19 23 -28 41 -16 8 5 11 9 7 10 -5 1 -11 2 -15 3 -5
1 -14 5 -20 9 -8 5 -13 3 -13 -6z"/>
<path d="M500 3295 c0 -2 9 -9 20 -15 16 -9 18 -8 14 5 -5 13 -34 22 -34 10z"/>
<path d="M3492 3243 c-13 -23 1 -43 28 -43 9 0 29 -20 44 -45 16 -24 32 -42
37 -39 7 4 -6 25 -38 59 -7 8 -13 18 -13 24 0 6 -3 11 -8 11 -4 0 -15 12 -23
27 -16 25 -17 25 -27 6z m22 -19 c3 -8 2 -12 -4 -9 -6 3 -10 10 -10 16 0 14 7
11 14 -7z"/>
<path d="M416 3194 c-9 -22 -8 -26 6 -18 7 4 8 3 4 -4 -4 -6 -12 -9 -19 -6 -7
2 -20 -9 -29 -24 -19 -33 -14 -49 9 -26 8 8 19 12 24 9 5 -4 9 -2 9 3 0 17
-13 22 -29 9 -14 -11 -14 -10 -2 5 7 10 17 16 21 13 5 -3 15 -2 24 1 13 5 14
10 5 20 -6 7 -8 18 -4 24 3 5 2 10 -3 10 -6 0 -13 -7 -16 -16z"/>
<path d="M3830 2630 c0 -5 5 -10 10 -10 6 0 10 5 10 10 0 6 -4 10 -10 10 -5 0
-10 -4 -10 -10z"/>
<path d="M94 2578 c-4 -18 -8 -40 -9 -48 0 -9 -5 -21 -9 -28 -10 -17 -3 -24
18 -16 9 3 13 10 10 16 -3 5 2 18 11 28 13 15 14 23 5 39 -6 12 -8 26 -5 31 3
6 2 10 -4 10 -5 0 -13 -15 -17 -32z m19 -12 c3 -8 -2 -20 -11 -27 -14 -11 -15
-11 -5 0 6 7 9 20 6 27 -3 8 -3 14 0 14 3 0 7 -6 10 -14z"/>
<path d="M3928 2205 c24 -30 29 -55 11 -55 -5 0 -7 -4 -4 -10 10 -16 22 -12
23 8 2 34 -8 57 -29 71 l-22 13 21 -27z"/>
<path d="M3910 2190 c0 -5 5 -10 10 -10 6 0 10 5 10 10 0 6 -4 10 -10 10 -5 0
-10 -4 -10 -10z"/>
<path d="M3945 2010 c-3 -5 1 -10 9 -10 9 0 16 5 16 10 0 6 -4 10 -9 10 -6 0
-13 -4 -16 -10z"/>
<path d="M3945 1980 c-7 -11 2 -30 13 -30 4 0 8 9 8 20 0 21 -11 26 -21 10z"/>
<path d="M3916 1611 c-4 -7 -5 -15 -2 -18 9 -9 19 4 14 18 -4 11 -6 11 -12 0z"/>
<path d="M3895 1580 c3 -5 14 -10 23 -10 15 0 15 2 2 10 -20 13 -33 13 -25 0z"/>
<path d="M50 1540 c0 -6 4 -9 8 -6 4 2 14 -5 22 -17 12 -20 12 -21 -3 -8 -10
8 -17 9 -17 3 0 -6 5 -14 10 -17 6 -4 8 -10 5 -15 -7 -11 5 -40 15 -40 5 0 7
14 5 30 -2 17 1 30 7 30 7 0 7 4 -1 13 -6 8 -8 17 -4 20 3 4 1 7 -5 7 -5 0
-17 3 -26 6 -9 3 -16 1 -16 -6z"/>
<path d="M110 1410 c0 -5 6 -10 13 -10 6 0 4 -5 -5 -11 -23 -13 -23 -26 1 -38
17 -9 18 -7 16 22 -2 18 -3 35 -4 40 -2 11 -21 9 -21 -3z"/>
<path d="M3821 1328 c-13 -21 -3 -23 22 -4 21 16 22 23 3 23 -7 0 -18 -9 -25
-19z"/>
<path d="M3716 1064 c-8 -22 1 -31 16 -16 9 9 9 15 1 23 -7 7 -12 5 -17 -7z"/>
<path d="M247 1033 c3 -7 9 -13 15 -13 5 0 6 -4 3 -10 -10 -16 11 -12 25 5 16
19 6 30 -25 30 -15 1 -21 -4 -18 -12z"/>
<path d="M3635 930 c-3 -5 1 -10 10 -10 9 0 13 5 10 10 -3 6 -8 10 -10 10 -2
0 -7 -4 -10 -10z"/>
<path d="M525 650 c-3 -5 1 -10 9 -10 9 0 16 5 16 10 0 6 -4 10 -9 10 -6 0
-13 -4 -16 -10z"/>
<path d="M3070 369 c0 -5 5 -7 10 -4 6 3 10 8 10 11 0 2 -4 4 -10 4 -5 0 -10
-5 -10 -11z"/>
<path d="M2997 303 c-4 -3 -7 -11 -7 -17 0 -6 5 -5 12 2 6 6 9 14 7 17 -3 3
-9 2 -12 -2z"/>
<path d="M2671 171 c-11 -7 -10 -10 4 -18 16 -9 16 -11 1 -16 -10 -4 -15 -3
-11 3 3 6 2 10 -4 10 -14 0 -23 -18 -12 -24 8 -5 52 8 70 21 5 3 -20 33 -28
33 -3 0 -12 -4 -20 -9z"/>
<path d="M1295 130 c3 -5 8 -10 11 -10 2 0 4 5 4 10 0 6 -5 10 -11 10 -5 0 -7
-4 -4 -10z"/>
<path d="M1650 72 c0 -5 10 -17 23 -26 22 -16 22 -16 0 -6 -14 7 -24 7 -28 0
-3 -5 2 -10 12 -11 10 0 25 -2 34 -4 12 -2 16 4 15 21 -1 16 -6 22 -15 19 -7
-3 -20 0 -27 6 -8 7 -14 7 -14 1z"/>
</g>
</svg>
